<?xml version="1.0" standalone="no"?>
<!DOCTYPE svg PUBLIC "-//W3C//DTD SVG 20010904//EN"
 "http://www.w3.org/TR/2001/REC-SVG-20010904/DTD/svg10.dtd">
<svg version="1.0" xmlns="http://www.w3.org/2000/svg"
 width="331.000000pt" height="331.000000pt" viewBox="0 0 331.000000 331.000000"
 preserveAspectRatio="xMidYMid meet">

<g transform="translate(0.000000,331.000000) scale(0.100000,-0.100000)"
fill="#000000" stroke="none">
<path d="M270 3231 c-69 -21 -121 -65 -156 -131 -18 -34 -19 -91 -22 -1420 -2
-990 0 -1400 8 -1437 15 -71 57 -125 121 -157 l53 -26 1401 0 1401 0 53 26
c64 32 106 87 121 157 7 36 10 479 8 1437 -3 1329 -4 1386 -22 1420 -26 49
-64 88 -111 113 l-40 22 -1395 2 c-767 1 -1406 -2 -1420 -6z m651 -546 c100
-36 159 -121 159 -230 0 -148 -105 -245 -265 -245 -143 0 -244 79 -261 203
-18 129 42 230 163 273 51 18 151 17 204 -1z m1488 -670 c185 -59 303 -206
347 -433 11 -57 14 -180 14 -538 l0 -464 -235 0 -235 0 0 388 c-1 434 -7 510
-47 585 -77 143 -270 156 -387 27 -73 -81 -71 -65 -74 -557 l-3 -443 -235 0
-234 0 0 715 0 715 235 0 235 0 0 -95 c0 -52 4 -95 8 -95 4 0 15 13 24 28 23
38 94 103 149 135 66 39 142 56 256 56 83 1 117 -4 182 -24z m-1359 -720 l0
-715 -235 0 -235 0 0 715 0 715 235 0 235 0 0 -715z"/>
</g>
</svg>
