
<svg version="1.0" xmlns="http://www.w3.org/2000/svg"
 width="1959.000000pt" height="1042.000000pt" viewBox="0 0 1959.000000 1042.000000"
 preserveAspectRatio="xMidYMid meet">

<g transform="translate(0.000000,1042.000000) scale(0.100000,-0.100000)"
fill="currentColor" stroke="none">
<path d="M10090 10139 c-166 -11 -425 -45 -585 -75 -146 -28 -388 -84 -383
-89 2 -2 46 3 98 11 86 13 184 27 280 38 19 3 76 7 125 11 50 4 106 9 125 11
46 5 545 5 590 0 19 -3 76 -7 125 -11 107 -7 127 -9 315 -36 823 -118 1642
-459 2310 -960 1164 -876 1886 -2180 2015 -3639 17 -193 20 -617 5 -811 -74
-942 -420 -1872 -980 -2629 -622 -842 -1517 -1488 -2500 -1806 -112 -36 -89
-42 39 -9 1121 284 2114 940 2809 1857 727 959 1100 2194 1022 3383 -98 1482
-828 2843 -2002 3733 -967 733 -2199 1102 -3408 1021z"/>
<path d="M10095 7164 c-167 -400 -1436 -3581 -1432 -3593 7 -26 470 -1162 473
-1159 1 2 937 2357 973 2452 5 12 278 -666 891 -2210 485 -1226 888 -2240 895
-2252 10 -21 35 35 249 561 l238 584 -1132 2824 c-623 1553 -1134 2826 -1136
2828 -1 2 -10 -14 -19 -35z"/>
<path d="M530 6595 l0 -464 1268 -4 c1373 -4 1307 -1 1510 -58 356 -99 619
-348 725 -684 46 -145 58 -223 64 -410 13 -404 -79 -683 -301 -913 -149 -155
-346 -256 -615 -315 -94 -21 -117 -21 -1373 -24 l-1278 -4 0 -1594 0 -1595
465 0 465 0 0 1125 0 1125 513 0 512 -1 809 -1124 809 -1125 544 0 545 0 -34
48 c-19 26 -395 550 -836 1164 -441 615 -802 1121 -802 1125 0 5 42 21 93 36
298 92 577 259 803 482 131 130 211 230 301 377 364 596 424 1453 147 2108
-171 407 -507 741 -938 933 -300 134 -655 217 -1051 247 -84 6 -580 10 -1242
10 l-1103 0 0 -465z"/>
<path d="M5614 7043 c80 -211 2713 -6660 2717 -6655 4 4 113 276 243 605 l237
597 -1092 2723 c-600 1497 -1093 2728 -1096 2735 -4 9 -115 12 -510 12 -477 0
-505 -1 -499 -17z"/>
<path d="M12917 5310 l-697 -1750 243 -595 c133 -327 245 -595 248 -595 6 0
1909 4669 1909 4683 0 4 -226 7 -503 7 l-503 0 -697 -1750z"/>
<path d="M15600 6595 l0 -465 1870 0 1870 0 0 465 0 465 -1870 0 -1870 0 0
-465z"/>
<path d="M15607 4243 c-4 -3 -7 -840 -7 -1860 l0 -1853 470 0 470 0 0 1400 0
1400 1165 0 1165 0 0 460 0 460 -1628 0 c-896 0 -1632 -3 -1635 -7z"/>
<path d="M11518 113 c7 -3 16 -2 19 1 4 3 -2 6 -13 5 -11 0 -14 -3 -6 -6z"/>
</g>
</svg>
